<svg width="1440" height="412" viewBox="0 0 1440 412" fill="none" xmlns="http://www.w3.org/2000/svg">
<path d="M-10 59.9872C49.5 38.8205 228.7 -0.612827 329.5 10.9872C455.5 25.4872 688.5 82.9872 790 71.4872C891.5 59.9872 1214 -9.01283 1391 0.98717C1568 10.9872 1438.5 257.987 1450 316.987C1458.52 360.715 1474.28 374.059 1482.65 375.786C1483.28 375.853 1483.89 375.92 1484.5 375.987C1483.94 375.987 1483.32 375.923 1482.65 375.786C1411.77 368.136 1247.16 357.747 1140.5 375.987C1006 398.987 591.5 423.487 490 405.487C388.5 387.487 132.5 375.987 -10 405.487V59.9872Z" fill="#77B3DB"/>
</svg>
