<svg width="1440" height="413" viewBox="0 0 1440 413" fill="none" xmlns="http://www.w3.org/2000/svg">
<path d="M-10 60.4871C49.5 39.3204 228.7 -0.112888 329.5 11.4871C455.5 25.9871 688.5 83.4871 790 71.9871C891.5 60.4871 1214 -8.5129 1391 1.48711C1568 11.4871 1438.5 258.487 1450 317.487C1458.52 361.215 1474.28 374.559 1482.65 376.286C1483.28 376.353 1483.89 376.42 1484.5 376.487C1483.94 376.487 1483.32 376.423 1482.65 376.286C1411.77 368.636 1247.16 358.247 1140.5 376.487C1006 399.487 591.5 423.987 490 405.987C388.5 387.987 132.5 376.487 -10 405.987V60.4871Z" fill="#77B3DB"/>
<path d="M-10 60.4871C49.5 39.3204 228.7 -0.112888 329.5 11.4871C455.5 25.9871 688.5 83.4871 790 71.9871C891.5 60.4871 1214 -8.5129 1391 1.48711C1568 11.4871 1438.5 258.487 1450 317.487C1459.2 364.687 1476.83 376.487 1484.5 376.487C1414.67 368.82 1248.1 358.087 1140.5 376.487C1006 399.487 591.5 423.987 490 405.987C388.5 387.987 132.5 376.487 -10 405.987V60.4871Z" stroke="#3086F2"/>
</svg>
