<svg width="55" height="55" viewBox="0 0 55 55" fill="none" xmlns="http://www.w3.org/2000/svg">
<path d="M43.5416 9.16665H41.2499V6.87498C41.2499 5.49998 40.3332 4.58331 38.9582 4.58331C37.5832 4.58331 36.6666 5.49998 36.6666 6.87498V9.16665H18.3333V6.87498C18.3333 5.49998 17.4166 4.58331 16.0416 4.58331C14.6666 4.58331 13.7499 5.49998 13.7499 6.87498V9.16665H11.4583C7.56242 9.16665 4.58325 12.1458 4.58325 16.0416V18.3333H50.4166V16.0416C50.4166 12.1458 47.4374 9.16665 43.5416 9.16665ZM4.58325 43.5416C4.58325 47.4375 7.56242 50.4166 11.4583 50.4166H43.5416C47.4374 50.4166 50.4166 47.4375 50.4166 43.5416V22.9166H4.58325V43.5416ZM38.9582 27.5C40.3332 27.5 41.2499 28.4166 41.2499 29.7916C41.2499 31.1666 40.3332 32.0833 38.9582 32.0833C37.5832 32.0833 36.6666 31.1666 36.6666 29.7916C36.6666 28.4166 37.5832 27.5 38.9582 27.5ZM38.9582 36.6666C40.3332 36.6666 41.2499 37.5833 41.2499 38.9583C41.2499 40.3333 40.3332 41.25 38.9582 41.25C37.5832 41.25 36.6666 40.3333 36.6666 38.9583C36.6666 37.5833 37.5832 36.6666 38.9582 36.6666ZM27.4999 27.5C28.8749 27.5 29.7916 28.4166 29.7916 29.7916C29.7916 31.1666 28.8749 32.0833 27.4999 32.0833C26.1249 32.0833 25.2083 31.1666 25.2083 29.7916C25.2083 28.4166 26.1249 27.5 27.4999 27.5ZM27.4999 36.6666C28.8749 36.6666 29.7916 37.5833 29.7916 38.9583C29.7916 40.3333 28.8749 41.25 27.4999 41.25C26.1249 41.25 25.2083 40.3333 25.2083 38.9583C25.2083 37.5833 26.1249 36.6666 27.4999 36.6666ZM16.0416 27.5C17.4166 27.5 18.3333 28.4166 18.3333 29.7916C18.3333 31.1666 17.4166 32.0833 16.0416 32.0833C14.6666 32.0833 13.7499 31.1666 13.7499 29.7916C13.7499 28.4166 14.6666 27.5 16.0416 27.5ZM16.0416 36.6666C17.4166 36.6666 18.3333 37.5833 18.3333 38.9583C18.3333 40.3333 17.4166 41.25 16.0416 41.25C14.6666 41.25 13.7499 40.3333 13.7499 38.9583C13.7499 37.5833 14.6666 36.6666 16.0416 36.6666Z" fill="white"/>
</svg>
