<svg width="67" height="67" viewBox="0 0 67 67" fill="none" xmlns="http://www.w3.org/2000/svg">
<path d="M10.3013 25.4601C10.0695 25.2113 9.78845 25.0133 9.47609 24.8788C9.16374 24.7442 8.82685 24.676 8.48676 24.6784C7.34217 24.6784 6.47676 25.2088 5.91842 26.2976C5.36009 27.3863 5.49967 28.4192 6.39301 29.3963C9.68717 32.3555 11.7809 34.4492 12.6743 35.6776C13.8188 37.2409 14.3772 39.5301 14.3772 42.4893C14.3772 46.1463 15.773 48.8542 18.5647 50.7247C20.128 51.953 21.8309 52.8742 23.7293 53.4884V42.6288C23.7293 40.0047 22.808 37.8272 21.0493 36.0684M45.9509 36.208C44.2201 37.9388 43.2709 40.0884 43.2709 42.6288V53.6001C45.9509 52.6509 48.1843 51.1713 50.0268 49.2172C51.8413 47.263 52.7626 45.1134 52.7626 42.4893C52.7626 39.3347 53.293 37.0734 54.3538 35.6776C54.6051 35.2309 55.0797 34.6726 55.8334 33.9747C56.4755 33.2767 57.1455 32.6067 57.8155 31.9926C58.4576 31.4063 59.0997 30.7922 59.7138 30.178L60.6351 29.3963C60.8847 29.1592 61.0829 28.8732 61.2173 28.5563C61.3518 28.2393 61.4197 27.8981 61.4168 27.5538C61.4168 26.7722 61.1655 26.0742 60.6351 25.5159C60.1047 24.9576 59.4626 24.6784 58.6251 24.6784C57.7876 24.6784 57.2293 24.9297 56.6988 25.4601M33.5001 55.8334C35.4263 55.8334 37.2968 55.5822 39.0834 55.0517V45.0855C39.0834 43.4384 38.5809 42.1542 37.4363 40.9259C36.2918 39.6976 34.9797 39.0834 33.5001 39.0834C32.0205 39.0834 30.7084 39.6417 29.6476 40.7863C28.5309 41.8751 27.9168 43.1592 27.9168 44.8342V55.0517C29.7034 55.5822 31.5738 55.8334 33.5001 55.8334ZM25.1251 23.7292C25.1251 26.0463 23.2547 27.9167 20.9376 27.9167C18.6205 27.9167 16.7501 26.0463 16.7501 23.7292C16.7501 21.4122 18.6205 19.5417 20.9376 19.5417C23.2547 19.5417 25.1251 21.4122 25.1251 23.7292ZM50.2501 23.7292C50.2501 26.0463 48.3797 27.9167 46.0626 27.9167C43.7455 27.9167 41.8751 26.0463 41.8751 23.7292C41.8751 21.4122 43.7455 19.5417 46.0626 19.5417C48.3797 19.5417 50.2501 21.4122 50.2501 23.7292ZM37.6876 15.3542C37.6876 17.6713 35.8172 19.5417 33.5001 19.5417C31.183 19.5417 29.3126 17.6713 29.3126 15.3542C29.3126 13.0372 31.183 11.1667 33.5001 11.1667C35.8172 11.1667 37.6876 13.0372 37.6876 15.3542ZM37.6876 30.7084C37.6876 33.0255 35.8172 34.8959 33.5001 34.8959C31.183 34.8959 29.3126 33.0255 29.3126 30.7084C29.3126 28.3913 31.183 26.5209 33.5001 26.5209C35.8172 26.5209 37.6876 28.3913 37.6876 30.7084Z" fill="black"/>
</svg>
