<svg width="82" height="82" viewBox="0 0 82 82" fill="none" xmlns="http://www.w3.org/2000/svg">
<g clip-path="url(#clip0_12_22)">
<path d="M47.8333 27.3333H15.9444C15.3403 27.3333 14.7609 27.0933 14.3338 26.6661C13.9066 26.239 13.6666 25.6596 13.6666 25.0555V15.9444C13.6666 15.3403 13.9066 14.7609 14.3338 14.3338C14.7609 13.9066 15.3403 13.6666 15.9444 13.6666H47.8333C48.4374 13.6666 49.0168 13.9066 49.4439 14.3338C49.8711 14.7609 50.1111 15.3403 50.1111 15.9444V25.0555C50.1111 25.6596 49.8711 26.239 49.4439 26.6661C49.0168 27.0933 48.4374 27.3333 47.8333 27.3333ZM18.2222 22.7777H45.5555V18.0855H18.2222V22.7777Z" fill="black"/>
<path d="M47.8333 32.0712H15.9444C15.3403 32.0712 14.7609 32.3111 14.3338 32.7383C13.9066 33.1655 13.6666 33.7448 13.6666 34.3489V43.2778C13.6666 43.8819 13.9066 44.4613 14.3338 44.8885C14.7609 45.3156 15.3403 45.5556 15.9444 45.5556H41.82L50.1111 37.1278V34.3489C50.1111 33.7448 49.8711 33.1655 49.4439 32.7383C49.0168 32.3111 48.4374 32.0712 47.8333 32.0712ZM45.5555 41.0001H18.2222V36.4445H45.5555V41.0001Z" fill="black"/>
<path d="M25.1922 71.7728V71.6361L25.9211 68.47H9.1111V9.1111H54.6666V32.4583L59.2222 28.1533V6.83332C59.2222 6.22922 58.9822 5.64985 58.5551 5.22269C58.1279 4.79552 57.5485 4.55554 56.9444 4.55554H6.83332C6.22922 4.55554 5.64985 4.79552 5.22269 5.22269C4.79552 5.64985 4.55554 6.22922 4.55554 6.83332V70.6111C4.55554 71.2152 4.79552 71.7946 5.22269 72.2217C5.64985 72.6489 6.22922 72.8889 6.83332 72.8889H25.0555C25.074 72.514 25.1197 72.141 25.1922 71.7728Z" fill="black"/>
<path d="M50.1111 43.665L48.3345 45.4645C48.7753 45.3736 49.1793 45.1542 49.4955 44.834C49.8117 44.5137 50.0259 44.1069 50.1111 43.665Z" fill="black"/>
<path d="M13.6666 61.3633C13.6666 61.9674 13.9066 62.5468 14.3338 62.9739C14.7609 63.4011 15.3403 63.6411 15.9444 63.6411H26.9688L27.6522 60.68L27.9483 59.4272V59.3133H18.2222V54.6666H32.6633L37.2188 50.1111H15.9444C15.3403 50.1111 14.7609 50.3511 14.3338 50.7782C13.9066 51.2054 13.6666 51.7848 13.6666 52.3889V61.3633Z" fill="black"/>
<path d="M76.2828 37.9706L68.6067 30.2945C68.266 29.9529 67.8613 29.6818 67.4157 29.4969C66.9702 29.312 66.4925 29.2168 66.01 29.2168C65.5276 29.2168 65.0499 29.312 64.6043 29.4969C64.1588 29.6818 63.754 29.9529 63.4134 30.2945L32.185 61.705L29.6112 72.6611C29.5148 73.1338 29.5126 73.6208 29.6048 74.0943C29.6969 74.5678 29.8816 75.0185 30.1482 75.4205C30.4148 75.8225 30.7581 76.168 31.1584 76.4371C31.5588 76.7062 32.0082 76.8938 32.4812 76.9889C32.716 77.0118 32.9524 77.0118 33.1873 76.9889C33.4665 77.0325 33.7508 77.0325 34.03 76.9889L45.0773 74.5517L76.2828 43.2778C76.6237 42.9391 76.8943 42.5363 77.0789 42.0926C77.2635 41.6489 77.3585 41.1731 77.3585 40.6925C77.3585 40.2119 77.2635 39.7361 77.0789 39.2924C76.8943 38.8487 76.6237 38.4459 76.2828 38.1072V37.9706ZM42.7539 70.4061L34.4173 72.2511L36.4445 63.9828L59.86 40.3167L66.2834 46.74L42.7539 70.4061ZM68.8573 44.1661L62.4339 37.7428L66.0556 34.1667L72.5245 40.6356L68.8573 44.1661Z" fill="black"/>
</g>
<defs>
<clipPath id="clip0_12_22">
<rect width="82" height="82" fill="white"/>
</clipPath>
</defs>
</svg>
