<svg width="65" height="65" viewBox="0 0 65 65" fill="none" xmlns="http://www.w3.org/2000/svg">
<path d="M10.8334 5.41667H54.1667V13.5417C54.1675 17.4112 53.132 21.2103 51.1679 24.5442C49.2037 27.8781 46.3825 30.6252 42.9975 32.5C46.3825 34.3748 49.2037 37.1219 51.1679 40.4558C53.132 43.7897 54.1675 47.5888 54.1667 51.4583V59.5833H10.8334V51.4583C10.8326 47.5888 11.868 43.7897 13.8322 40.4558C15.7964 37.1219 18.6175 34.3748 22.0025 32.5C18.6175 30.6252 15.7964 27.8781 13.8322 24.5442C11.868 21.2103 10.8326 17.4112 10.8334 13.5417V5.41667ZM48.75 13.5417V10.8333H16.25V13.5417C16.25 15.9575 16.7782 18.2515 17.7234 20.3125H47.2767C48.2246 18.2515 48.75 15.9575 48.75 13.5417ZM29.7971 35.4331C26.0092 36.0721 22.5701 38.0323 20.0902 40.9659C17.6102 43.8996 16.2497 47.6169 16.25 51.4583V54.1667H19.2292C19.7636 51.565 21.0498 49.1774 22.9284 47.2998C24.8069 45.4222 27.1952 44.1372 29.7971 43.6042V35.4331ZM35.203 43.6042C37.8049 44.1372 40.1932 45.4222 42.0717 47.2998C43.9503 49.1774 45.2365 51.565 45.7709 54.1667H48.75V51.4583C48.7504 47.6169 47.3899 43.8996 44.9099 40.9659C42.4299 38.0323 38.9909 36.0721 35.203 35.4331V43.6042Z" fill="black"/>
</svg>
