<svg width="55" height="55" viewBox="0 0 55 55" fill="none" xmlns="http://www.w3.org/2000/svg">
<path d="M27.5001 29.7916C25.5904 29.7916 23.9671 29.1232 22.6303 27.7864C21.2935 26.4496 20.6251 24.8263 20.6251 22.9166C20.6251 21.0069 21.2935 19.3836 22.6303 18.0468C23.9671 16.71 25.5904 16.0416 27.5001 16.0416C29.4098 16.0416 31.0331 16.71 32.3699 18.0468C33.7067 19.3836 34.3751 21.0069 34.3751 22.9166C34.3751 24.8263 33.7067 26.4496 32.3699 27.7864C31.0331 29.1232 29.4098 29.7916 27.5001 29.7916ZM13.7501 52.7083V35.0051C12.2987 33.401 11.172 31.5676 10.3699 29.5051C9.56779 27.4426 9.16675 25.2464 9.16675 22.9166C9.16675 17.7985 10.9428 13.4635 14.4949 9.91138C18.047 6.35929 22.382 4.58325 27.5001 4.58325C32.6181 4.58325 36.9532 6.35929 40.5053 9.91138C44.0574 13.4635 45.8334 17.7985 45.8334 22.9166C45.8334 25.2464 45.4324 27.4426 44.6303 29.5051C43.8282 31.5676 42.7015 33.401 41.2501 35.0051V52.7083L27.5001 48.1249L13.7501 52.7083ZM27.5001 36.6666C31.3195 36.6666 34.5661 35.3298 37.2397 32.6562C39.9133 29.9826 41.2501 26.736 41.2501 22.9166C41.2501 19.0971 39.9133 15.8506 37.2397 13.177C34.5661 10.5034 31.3195 9.16659 27.5001 9.16659C23.6806 9.16659 20.4341 10.5034 17.7605 13.177C15.0869 15.8506 13.7501 19.0971 13.7501 22.9166C13.7501 26.736 15.0869 29.9826 17.7605 32.6562C20.4341 35.3298 23.6806 36.6666 27.5001 36.6666Z" fill="black"/>
</svg>
