<svg width="49" height="49" viewBox="0 0 49 49" fill="none" xmlns="http://www.w3.org/2000/svg">
<path d="M7 0C3.13906 0 0 3.13906 0 7V42C0 45.8609 3.13906 49 7 49H42C45.8609 49 49 45.8609 49 42V7C49 3.13906 45.8609 0 42 0H7ZM16.625 10.5766C17.6969 10.2812 18.8234 10.8391 19.25 11.8672L21.4703 17.1938C21.8422 18.1016 21.5906 19.1406 20.825 19.7641L18.4078 21.7328C20.1797 25.6484 23.275 28.8422 27.1141 30.7453L29.225 28.1641C29.8484 27.4094 30.8875 27.1469 31.7953 27.5188L37.1219 29.7391C38.15 30.1656 38.6969 31.2922 38.4125 32.3641L38.325 32.6703C37.3625 36.2031 33.9391 39.2219 29.7719 38.3359C20.2016 36.3125 12.6766 28.7766 10.6422 19.2063C9.75625 15.0391 12.775 11.6156 16.3078 10.6531L16.6141 10.5656L16.625 10.5766Z" fill="white"/>
</svg>
