<svg width="74" height="59" viewBox="0 0 74 59" fill="none" xmlns="http://www.w3.org/2000/svg">
<path d="M37 40.5625C35.15 40.5625 33.5668 39.841 32.2505 38.3979C30.9342 36.9549 30.275 35.2181 30.2727 33.1875C30.2727 31.774 30.5396 30.3764 31.0733 28.9948C31.607 27.6132 32.6295 25.6306 34.1409 23.0469L35.5704 20.7422C35.9068 20.1891 36.3833 19.9125 37 19.9125C37.6166 19.9125 38.0932 20.1891 38.4295 20.7422L39.8591 23.0469C41.3727 25.6281 42.3964 27.6108 42.9301 28.9948C43.4638 30.3789 43.7295 31.7764 43.7272 33.1875C43.7272 35.2156 43.0691 36.9524 41.7528 38.3979C40.4365 39.8434 38.8522 40.565 37 40.5625ZM6.72727 47.9375H20.5182C19.5651 46.8927 18.6827 45.7557 17.871 44.5266C17.0592 43.2974 16.3439 41.976 15.725 40.5625H6.72727V47.9375ZM37 47.9375C41.653 47.9375 45.6199 46.1392 48.9005 42.5427C52.1812 38.9461 53.8204 34.5986 53.8181 29.5C53.8159 24.4014 52.1756 20.0539 48.8972 16.4573C45.6187 12.8608 41.653 11.0625 37 11.0625C32.347 11.0625 28.3812 12.8608 25.1028 16.4573C21.8244 20.0539 20.184 24.4014 20.1818 29.5C20.1796 34.5986 21.8199 38.9474 25.1028 42.5464C28.3857 46.1454 32.3514 47.9424 37 47.9375ZM58.275 18.4375H67.2727V11.0625H53.4818C54.4348 12.1073 55.3183 13.2443 56.1323 14.4734C56.9463 15.7026 57.6605 17.024 58.275 18.4375ZM6.72727 55.3125C6.72727 56.3573 6.40436 57.2337 5.75854 57.9417C5.11272 58.6497 4.31442 59.0024 3.36363 59C2.41285 58.9975 1.61454 58.6435 0.968727 57.938C0.322909 57.2324 0 56.3573 0 55.3125V33.1875C0 32.1427 0.322909 31.2675 0.968727 30.562C1.61454 29.8565 2.41285 29.5025 3.36363 29.5C4.31442 29.4975 5.11385 29.8515 5.76191 30.562C6.40997 31.2725 6.73175 32.1476 6.72727 33.1875H13.7068C13.5947 32.5729 13.5252 31.9731 13.4983 31.388C13.4714 30.8029 13.4568 30.1736 13.4545 29.5C13.4545 22.3094 15.7396 16.2103 20.3096 11.2026C24.8797 6.19501 30.4431 3.68997 37 3.68751H67.2727C67.2727 2.64272 67.5956 1.76755 68.2414 1.06201C68.8872 0.356471 69.6855 0.00247105 70.6363 1.27155e-05C71.5871 -0.00244562 72.3865 0.351555 73.0346 1.06201C73.6826 1.77247 74.0044 2.64764 74 3.68751V25.8125C74 26.8573 73.677 27.7337 73.0312 28.4417C72.3854 29.1497 71.5871 29.5025 70.6363 29.5C69.6855 29.4975 68.8872 29.1435 68.2414 28.438C67.5956 27.7325 67.2727 26.8573 67.2727 25.8125H60.2931C60.4053 26.4271 60.4759 27.0269 60.5051 27.612C60.5342 28.1971 60.5477 28.8264 60.5454 29.5C60.5454 36.6906 58.2615 42.791 53.6937 47.8011C49.1259 52.8111 43.5613 55.3149 37 55.3125H6.72727Z" fill="black" fill-opacity="0.88"/>
</svg>
