<svg width="48" height="48" viewBox="0 0 48 48" fill="none" xmlns="http://www.w3.org/2000/svg">
<path d="M28.2419 20.9601C27.8669 20.5852 27.3582 20.3745 26.8279 20.3745C26.2976 20.3745 25.789 20.5852 25.4139 20.9601L23.9999 22.3721C23.2455 23.1007 22.2351 23.5039 21.1863 23.4948C20.1375 23.4857 19.1343 23.065 18.3926 22.3234C17.651 21.5818 17.2303 20.5785 17.2212 19.5297C17.2121 18.4809 17.6153 17.4705 18.3439 16.7161L29.6039 5.45211C32.2698 4.84576 35.0589 5.09531 37.5748 6.16526C40.0907 7.23521 42.2052 9.0711 43.6177 11.4119C45.0302 13.7527 45.6687 16.4792 45.4426 19.2038C45.2164 21.9283 44.137 24.5123 42.3579 26.5881L38.1419 30.8581L28.2419 20.9601ZM6.32192 8.93611C8.39088 6.86591 11.0979 5.55446 14.0048 5.214C16.9118 4.87355 19.8486 5.52401 22.3399 7.06011L15.5139 13.8881C14.0355 15.3636 13.1928 17.3587 13.1658 19.4472C13.1388 21.5357 13.9297 23.552 15.3695 25.0652C16.8093 26.5783 18.7837 27.4684 20.871 27.5452C22.9583 27.622 24.9928 26.8794 26.5399 25.4761L26.8279 25.2021L35.3139 33.6861L26.8279 42.1721C26.0778 42.922 25.0606 43.3433 23.9999 43.3433C22.9393 43.3433 21.922 42.922 21.1719 42.1721L6.31992 27.3201C3.88218 24.8822 2.5127 21.5757 2.5127 18.1281C2.5127 14.6805 3.88418 11.3741 6.32192 8.93611Z" fill="black"/>
</svg>
