<svg width="56" height="56" viewBox="0 0 56 56" fill="none" xmlns="http://www.w3.org/2000/svg">
<path d="M29.8433 49L7 26.1567V30.8233C7 32.06 7.49 33.25 8.37667 34.1133L26.5533 52.29C28.3733 54.11 31.3367 54.11 33.1567 52.29L47.6467 37.8C49.4667 35.98 49.4667 33.0167 47.6467 31.1967L29.8433 49Z" fill="white"/>
<path d="M26.5533 40.6233C28.3733 42.4433 31.3367 42.4433 33.1567 40.6233L47.6467 26.1333C49.4667 24.3133 49.4667 21.35 47.6467 19.53L29.47 1.35333C28.5837 0.488371 27.3951 0.00290576 26.1567 0L11.6667 0C9.1 0 7 2.1 7 4.66667V19.1567C7 20.3933 7.49 21.5833 8.37667 22.4467L26.5533 40.6233ZM16.9167 7C17.6902 7 18.4321 7.30729 18.9791 7.85427C19.526 8.40125 19.8333 9.14312 19.8333 9.91667C19.8333 10.6902 19.526 11.4321 18.9791 11.9791C18.4321 12.526 17.6902 12.8333 16.9167 12.8333C16.1431 12.8333 15.4013 12.526 14.8543 11.9791C14.3073 11.4321 14 10.6902 14 9.91667C14 9.14312 14.3073 8.40125 14.8543 7.85427C15.4013 7.30729 16.1431 7 16.9167 7Z" fill="white"/>
</svg>
